<svg id="Layer_1" data-name="Layer 1" xmlns="http://www.w3.org/2000/svg" viewBox="0 0 169.69 34.24"><defs><style>.cls-1{fill:#fff;}</style></defs><title>onramp_logo</title><path class="cls-1" d="M67,12.9a8.41,8.41,0,0,1,2.28,6.27A8.42,8.42,0,0,1,67,25.45a8.69,8.69,0,0,1-6.37,2.24,8.71,8.71,0,0,1-6.37-2.24A8.42,8.42,0,0,1,52,19.17a8.41,8.41,0,0,1,2.28-6.27,8.67,8.67,0,0,1,6.37-2.24A8.65,8.65,0,0,1,67,12.9Zm-8.69,2.8a6.13,6.13,0,0,0-.76,3.47,6.15,6.15,0,0,0,.76,3.48,3,3,0,0,0,4.65,0,6.24,6.24,0,0,0,.75-3.48,6.22,6.22,0,0,0-.75-3.47,3,3,0,0,0-4.65,0Z"/><path class="cls-1" d="M86.52,12.16a5.73,5.73,0,0,1,1.54,4.29V27.36H82.49V18a3.67,3.67,0,0,0-.6-2.37,2.15,2.15,0,0,0-1.72-.7,2.69,2.69,0,0,0-2.13.93,4.24,4.24,0,0,0-.82,2.87v8.64H71.65V11h5l.16,3.15A5.71,5.71,0,0,1,79,11.52a6.51,6.51,0,0,1,3.38-.86A5.64,5.64,0,0,1,86.52,12.16Z"/><path class="cls-1" d="M103,11l-.59,4.71a3.59,3.59,0,0,0-.88-.34,4.54,4.54,0,0,0-1.18-.15,3.67,3.67,0,0,0-2.62,1,3.78,3.78,0,0,0-1.05,2.87v8.25H91.14V11h4.91l.23,3.54a5.71,5.71,0,0,1,1.86-2.86,4.84,4.84,0,0,1,3.12-1A3.65,3.65,0,0,1,103,11Z"/><path class="cls-1" d="M121.05,24.05l-.43,3.12a4.61,4.61,0,0,1-2.22.52q-3.54,0-4.23-2.52c-1,1.68-2.93,2.52-5.83,2.52a5.92,5.92,0,0,1-3.77-1.05,3.67,3.67,0,0,1-1.31-3,4.28,4.28,0,0,1,1.49-3.39,10.81,10.81,0,0,1,4.9-2l3.7-.72v-.59a2.5,2.5,0,0,0-.62-1.77,2.26,2.26,0,0,0-1.7-.65,3.36,3.36,0,0,0-2,.59A2.91,2.91,0,0,0,108,17l-4.52-1.31A5.5,5.5,0,0,1,105.82,12,9.09,9.09,0,0,1,111,10.66a9.29,9.29,0,0,1,5.83,1.57,5.64,5.64,0,0,1,2,4.72v6c0,.85.4,1.28,1.18,1.28A3.17,3.17,0,0,0,121.05,24.05Zm-8.62-.6a2,2,0,0,0,.92-1.69V20.35L110.7,21a3.82,3.82,0,0,0-1.49.64,1.33,1.33,0,0,0-.45,1.07,1.31,1.31,0,0,0,.43,1.05,1.77,1.77,0,0,0,1.18.36A3.56,3.56,0,0,0,112.43,23.45Z"/><path class="cls-1" d="M147.8,12.16a5.74,5.74,0,0,1,1.55,4.29V27.36h-5.57V17.73c0-1.88-.74-2.81-2.23-2.81a2.57,2.57,0,0,0-2.09.94,4.22,4.22,0,0,0-.79,2.76v8.74H133.1V17.73c0-1.88-.74-2.81-2.22-2.81a2.63,2.63,0,0,0-2.07.94,4.34,4.34,0,0,0-.82,2.86v8.64h-5.57V11h5l.17,3.15a5.79,5.79,0,0,1,2.19-2.59,6.09,6.09,0,0,1,3.31-.88,5.94,5.94,0,0,1,3.23.85A4.77,4.77,0,0,1,138.25,14a5.58,5.58,0,0,1,2.24-2.46,6.32,6.32,0,0,1,3.26-.85A5.6,5.6,0,0,1,147.8,12.16Z"/><path class="cls-1" d="M167.92,12.88a9.79,9.79,0,0,1,1.77,6.23,9.9,9.9,0,0,1-1.8,6.32A6,6,0,0,1,163,27.69,5.22,5.22,0,0,1,158,24.61v9.63h-5.57V11h4.88l.17,3.48a6,6,0,0,1,2.11-2.77,5.56,5.56,0,0,1,3.36-1A6,6,0,0,1,167.92,12.88Zm-4.63,9.63a5.65,5.65,0,0,0,.8-3.34,5.67,5.67,0,0,0-.8-3.34A2.67,2.67,0,0,0,161,14.75a2.61,2.61,0,0,0-2.21,1.08A5.33,5.33,0,0,0,158,19v.33a5.34,5.34,0,0,0,.79,3.14A2.56,2.56,0,0,0,161,23.6,2.65,2.65,0,0,0,163.29,22.51Z"/><path class="cls-1" d="M40.1,0a17.16,17.16,0,0,0-12,4.92,16.61,16.61,0,1,0,5.09,12.76h.05a7,7,0,0,1,6.86-7h1.5V0ZM38.6,7.79a9.94,9.94,0,0,0-8.32,9.12h-.05a13.66,13.66,0,1,1-4.1-9.72,17.66,17.66,0,0,0-2.28,4.24,9.08,9.08,0,1,0,1.82,6.25h0A14.6,14.6,0,0,1,38.6,3.08ZM16.62,23a6.1,6.1,0,1,1,6.09-6.09A6.11,6.11,0,0,1,16.62,23Z"/></svg>