<svg xmlns="http://www.w3.org/2000/svg" viewBox="0 0 803 1637">
    <path fill="#EBF4FF" fill-rule="nonzero" d="M330.427 62.006c-70.69-77.55-190.863-83.113-268.413-12.423-76.776 69.983-82.995 188.464-14.521 266.074l2.098 2.34L384.947 685.9l1.153 1.305c45.91 52.662 49.344 129.811 8.315 186.291l-.568.771-353.961 456.274c-63.676 82.082-49.542 199.88 31.196 264.638l2.467 1.946c82.081 63.676 199.88 49.54 264.637-31.196l1.946-2.467 355.272-457.964c.678-.874 1.349-1.754 2.012-2.64 151.31-202.248 138.82-482.91-29.838-670.97l-.514-.57L330.427 62.006z"/>
</svg>
