<svg xmlns="http://www.w3.org/2000/svg" viewBox="0 0 346 793">
    <path d="M241.615 19.627c22.298-24.513 60.245-26.309 84.758-4.011 24.268 22.074 26.271 59.487 4.674 84.018l-.662.74L151.019 297.56l-1.043 1.185c-37.286 42.861-40.08 105.774-6.743 151.764l.794 1.08 189.418 244.683c20.082 25.94 15.58 63.136-9.936 83.56l-.78.613c-25.941 20.082-63.136 15.58-83.56-9.936l-.613-.78L48.74 524.535a59.999 59.999 0 01-.634-.834c-68.935-92.335-63.246-220.42 13.601-306.288l.325-.36L241.615 19.627z" fill="#4C50BF" fill-rule="nonzero"/>
</svg>
