<svg viewBox="0 0 44 35" xmlns="http://www.w3.org/2000/svg"><g fill="#2E3748" fill-rule="evenodd"><path d="M35.021 18H32.09c0-5.105 3.912-9.339 8.98-10.033v-5.1C33.15 3.586 26.93 10.1 26.93 18H24c0-9.926 8.314-18 18.536-18H44v10.668h-1.464c-4.143 0-7.515 3.289-7.515 7.332"/><path d="M17.5 10.888a6.618 6.618 0 00-6.612 6.611 6.62 6.62 0 006.612 6.613 6.621 6.621 0 006.613-6.613 6.62 6.62 0 00-6.613-6.611m0 16.122c-5.245 0-9.51-4.266-9.51-9.51 0-5.245 4.265-9.511 9.51-9.511 5.246 0 9.512 4.266 9.512 9.51 0 5.245-4.266 9.51-9.512 9.51m0 7.991C7.85 35 0 27.15 0 17.5S7.85 0 17.5 0c5.113 0 9.959 2.235 13.296 6.131l-2.203 1.886A14.589 14.589 0 0017.5 2.899C9.448 2.9 2.898 9.45 2.898 17.5c0 8.052 6.55 14.602 14.602 14.602s14.6-6.55 14.6-14.602H35C35 27.15 27.15 35 17.5 35"/></g></svg>
