<svg xmlns="http://www.w3.org/2000/svg" viewBox="0 0 172 35">
    <g fill="#2E3748" fill-rule="evenodd">
        <path d="M35.021 18H32.09c0-5.105 3.912-9.339 8.98-10.033v-5.1C33.15 3.586 26.93 10.1 26.93 18H24c0-9.926 8.314-18 18.536-18H44v10.668h-1.464c-4.143 0-7.515 3.289-7.515 7.332"/>
        <path d="M17.5 10.888a6.618 6.618 0 00-6.612 6.611 6.62 6.62 0 006.612 6.613 6.621 6.621 0 006.613-6.613 6.62 6.62 0 00-6.613-6.611m0 16.122c-5.245 0-9.51-4.266-9.51-9.51 0-5.245 4.265-9.511 9.51-9.511 5.246 0 9.512 4.266 9.512 9.51 0 5.245-4.266 9.51-9.512 9.51m0 7.991C7.85 35 0 27.15 0 17.5S7.85 0 17.5 0c5.113 0 9.959 2.235 13.296 6.131l-2.203 1.886A14.589 14.589 0 0017.5 2.899C9.448 2.9 2.898 9.45 2.898 17.5c0 8.052 6.55 14.602 14.602 14.602s14.6-6.55 14.6-14.602H35C35 27.15 27.15 35 17.5 35"/>
        <path fill-rule="nonzero" d="M65.568 28.32c1.685 0 3.163-.33 4.432-.992a7.223 7.223 0 002.976-2.848c.715-1.237 1.072-2.73 1.072-4.48 0-1.75-.357-3.243-1.072-4.48A7.223 7.223 0 0070 12.672c-1.27-.661-2.747-.992-4.432-.992-1.664 0-3.13.33-4.4.992a7.223 7.223 0 00-2.976 2.848c-.715 1.237-1.072 2.73-1.072 4.48 0 1.75.357 3.243 1.072 4.48a7.223 7.223 0 002.976 2.848c1.27.661 2.736.992 4.4.992zm0-3.872c-.939 0-1.67-.352-2.192-1.056-.523-.704-.784-1.835-.784-3.392 0-1.579.261-2.715.784-3.408.523-.693 1.253-1.04 2.192-1.04.96 0 1.701.347 2.224 1.04.523.693.784 1.83.784 3.408 0 1.557-.261 2.688-.784 3.392-.523.704-1.264 1.056-2.224 1.056zM81.72 28v-8.48c0-1.344.283-2.293.848-2.848a2.799 2.799 0 012.032-.832c.661 0 1.205.213 1.632.64.427.427.64 1.195.64 2.304V28h5.44V17.344c0-1.856-.512-3.264-1.536-4.224-1.024-.96-2.357-1.44-4-1.44-1.28 0-2.39.299-3.328.896-.939.597-1.653 1.483-2.144 2.656L81.144 12H76.28v16h5.44zm19 0v-8.064c0-1.237.357-2.165 1.072-2.784.715-.619 1.563-.928 2.544-.928.47 0 .87.032 1.2.096.33.064.603.128.816.192l.544-4.48c-.17-.085-.4-.165-.688-.24a4.193 4.193 0 00-1.04-.112c-1.259 0-2.288.336-3.088 1.008-.8.672-1.392 1.595-1.776 2.768L100.08 12h-4.8v16h5.44zm11.736.32a8.12 8.12 0 003.088-.592c.97-.395 1.68-1.008 2.128-1.84.256.81.747 1.413 1.472 1.808s1.59.592 2.592.592c.917 0 1.696-.15 2.336-.448l.32-3.104c-.235.085-.544.128-.928.128-.747 0-1.12-.416-1.12-1.248V17.76c0-1.984-.645-3.493-1.936-4.528-1.29-1.035-3.11-1.552-5.456-1.552-2.325 0-4.128.459-5.408 1.376-1.28.917-2.07 2.144-2.368 3.68l4.608 1.088c.192-.896.539-1.52 1.04-1.872.501-.352 1.104-.528 1.808-.528s1.264.219 1.68.656c.416.437.624 1.03.624 1.776v.448l-5.536 1.152c-1.493.299-2.587.827-3.28 1.584-.693.757-1.04 1.712-1.04 2.864 0 1.43.485 2.523 1.456 3.28.97.757 2.277 1.136 3.92 1.136zm1.728-3.52c-.47 0-.875-.117-1.216-.352-.341-.235-.512-.587-.512-1.056 0-.49.155-.859.464-1.104.31-.245.784-.432 1.424-.56l2.592-.544v.896c0 .939-.277 1.627-.832 2.064a3.014 3.014 0 01-1.92.656zm16.952 3.2v-8.448c0-1.323.283-2.272.848-2.848.565-.576 1.221-.864 1.968-.864.64 0 1.163.203 1.568.608.405.405.608 1.12.608 2.144V28h5.44v-8.544c0-1.195.267-2.096.8-2.704a2.567 2.567 0 012.016-.912c.64 0 1.163.203 1.568.608.405.405.608 1.12.608 2.144V28H152V17.344c0-1.877-.517-3.29-1.552-4.24-1.035-.95-2.341-1.424-3.92-1.424a6.503 6.503 0 00-3.184.8c-.97.533-1.701 1.323-2.192 2.368-.427-1.045-1.083-1.835-1.968-2.368-.885-.533-1.915-.8-3.088-.8-1.216 0-2.288.288-3.216.864-.928.576-1.648 1.43-2.16 2.56L130.56 12h-4.864v16h5.44zm29.272 6.72v-9.472a5.472 5.472 0 001.856 2.224c.81.565 1.792.848 2.944.848 1.963 0 3.557-.736 4.784-2.208 1.227-1.472 1.84-3.53 1.84-6.176 0-2.603-.603-4.63-1.808-6.08-1.205-1.45-2.79-2.176-4.752-2.176-1.237 0-2.31.325-3.216.976-.907.65-1.584 1.51-2.032 2.576l-.16-3.232h-4.896v22.72h5.44zm2.944-10.4c-.939 0-1.664-.384-2.176-1.152-.512-.768-.768-1.824-.768-3.168 0-1.408.267-2.48.8-3.216.533-.736 1.259-1.104 2.176-1.104.939 0 1.67.347 2.192 1.04.523.693.784 1.787.784 3.28 0 1.493-.267 2.587-.8 3.28-.533.693-1.27 1.04-2.208 1.04z"/>
    </g>
</svg>
