<svg width="280" height="175" xmlns="http://www.w3.org/2000/svg"><g fill="none" fill-rule="evenodd"><g transform="translate(64 28)"><path fill="#1A202C" d="M0 0h153v120H0z"/><path fill="#4C50BF" d="M0 0h153v19H0z"/><circle fill="#EBF4FF" cx="25" cy="10" r="4"/><circle fill="#EBF4FF" cx="37" cy="10" r="4"/><circle fill="#EBF4FF" cx="14" cy="10" r="4"/></g><path fill="#4C50BF" d="M91 65h98v18H91zM91 88h98v18H91z"/><path fill="#EBF4FF" d="M91 111h98v18H91z"/><path d="M129.934 123v-.889h-2.157v-4.214h-1.008V123h3.165zm2.386.1c.592 0 1.04-.224 1.341-.67.302-.447.453-1.106.453-1.976 0-.873-.15-1.533-.453-1.98-.302-.446-.749-.67-1.341-.67-.59 0-1.036.224-1.338.67-.302.447-.453 1.107-.453 1.98 0 .87.15 1.529.453 1.975.302.447.748.67 1.338.67zm0-.907c-.258 0-.446-.137-.564-.412-.119-.274-.178-.717-.178-1.327 0-.613.06-1.057.178-1.332.118-.274.306-.412.564-.412.26 0 .449.138.567.412.119.275.178.719.178 1.332 0 .61-.06 1.053-.178 1.327-.118.275-.307.412-.567.412zm4.58.906a2.068 2.068 0 001.391-.506v-2.338h-1.572v.848h.69v.974a.48.48 0 01-.188.087c-.077.02-.168.03-.273.03a.88.88 0 01-.797-.445c-.182-.296-.273-.728-.273-1.295 0-.586.094-1.023.284-1.311.189-.288.475-.433.858-.433a1.323 1.323 0 011.09.55v-1.117a2.193 2.193 0 00-1.162-.338c-.686 0-1.21.226-1.574.68-.364.453-.545 1.11-.545 1.969 0 .845.18 1.497.54 1.956.36.46.87.69 1.53.69zm5.37-.099v-.889h-1.016v-3.325h1.016v-.889h-3.039v.889h1.015v3.325h-1.015V123h3.039zm1.883 0v-3.708l1.429 3.708h1.076v-5.103h-.888v3.708l-1.422-3.708h-1.084V123h.889zM99.063 99.776v-1.92l1.718 1.037.387-.668-1.82-.99 1.816-.98-.383-.672c-.275.165-.56.336-.854.515-.295.178-.583.351-.864.518V94.7h-.778v1.916l-1.718-1.033-.378.673 1.82.98-1.824.989.382.668c.275-.164.56-.336.857-.515l.437-.263.424-.255v1.916h.778zm5.418 0v-1.92l1.719 1.037.386-.668-1.819-.99 1.815-.98-.382-.672c-.276.165-.56.336-.855.515-.294.178-.582.351-.864.518V94.7h-.777v1.916l-1.719-1.033-.378.673 1.82.98-1.824.989.382.668c.276-.164.561-.336.857-.515l.862-.518v1.916h.777zm5.419 0v-1.92l1.718 1.037.387-.668-1.82-.99 1.815-.98-.382-.672c-.275.165-.56.336-.855.515-.294.178-.582.351-.863.518V94.7h-.778v1.916l-1.718-1.033-.378.673 1.82.98-1.825.989.383.668c.275-.164.56-.336.857-.515l.861-.518v1.916h.778zm5.418 0v-1.92l1.719 1.037.386-.668-1.819-.99 1.815-.98-.382-.672c-.276.165-.56.336-.855.515-.295.178-.582.351-.864.518V94.7h-.777v1.916l-1.719-1.033-.378.673 1.82.98-1.824.989.382.668c.276-.164.561-.336.857-.515l.862-.518v1.916h.777zm5.419 0v-1.92l1.718 1.037.387-.668-1.82-.99 1.815-.98-.382-.672c-.275.165-.56.336-.855.515-.294.178-.582.351-.863.518V94.7h-.778v1.916l-1.718-1.033-.378.673 1.82.98-1.825.989.383.668c.275-.164.56-.336.857-.515l.861-.518v1.916h.778zm5.418 0v-1.92l1.719 1.037.386-.668-1.82-.99 1.816-.98-.382-.672c-.276.165-.56.336-.855.515-.295.178-.582.351-.864.518V94.7h-.778v1.916l-1.718-1.033-.378.673 1.82.98-1.824.989.382.668c.276-.164.561-.336.857-.515l.861-.518v1.916h.778zm5.419 0v-1.92l1.718 1.037.387-.668-1.82-.99 1.815-.98-.382-.672c-.275.165-.56.336-.855.515-.294.178-.582.351-.863.518V94.7h-.778v1.916l-1.718-1.033-.378.673 1.819.98-1.824.989.383.668c.275-.164.56-.336.857-.515l.86-.518v1.916h.779zm5.418 0v-1.92l1.718 1.037.387-.668-1.82-.99 1.816-.98-.383-.672c-.275.165-.56.336-.854.515-.295.178-.583.351-.864.518V94.7h-.778v1.916l-1.718-1.033-.378.673 1.82.98-1.824.989.382.668c.275-.164.561-.336.857-.515l.861-.518v1.916h.778zM97.65 77.1c.24 0 .445-.059.614-.175.17-.116.29-.28.361-.492V77h1.001v-3.828h-1.001v2.198c0 .287-.05.51-.152.67a.475.475 0 01-.422.239c-.18 0-.309-.06-.386-.178-.078-.118-.117-.316-.117-.591v-2.338h-1.001v2.492c0 .474.093.831.278 1.073.186.241.461.362.826.362zm4.656 0c.52 0 .909-.1 1.167-.297.259-.197.388-.492.388-.886 0-.329-.085-.589-.254-.782-.17-.192-.437-.332-.802-.418l-.287-.069-.038-.01c-.487-.114-.731-.262-.731-.444 0-.128.057-.224.17-.289.115-.065.283-.097.507-.097.2 0 .4.03.6.09.199.06.391.15.576.269v-.875a3.747 3.747 0 00-.628-.16 3.995 3.995 0 00-.647-.052c-.483 0-.858.102-1.125.307-.266.205-.4.492-.4.862 0 .31.088.557.263.741.176.185.455.32.838.407l.277.061c.321.078.524.15.61.22a.354.354 0 01.128.293c0 .13-.06.23-.181.298-.121.068-.299.102-.533.102-.215 0-.436-.033-.665-.099a3.122 3.122 0 01-.675-.287v.875c.248.08.493.14.735.18.241.04.477.06.707.06zm4.413 0a3.806 3.806 0 001.477-.287v-.921a3.16 3.16 0 01-.701.315c-.224.066-.45.1-.68.1-.35 0-.611-.075-.787-.223-.175-.148-.264-.373-.266-.673h2.594v-.407c0-.61-.157-1.084-.47-1.42-.313-.336-.754-.504-1.321-.504-.563 0-1.007.18-1.333.543-.326.362-.489.856-.489 1.48 0 .645.17 1.139.508 1.482.338.343.827.514 1.468.514zm-.947-2.438c.025-.257.106-.456.243-.596.136-.14.32-.21.55-.21.255 0 .448.067.58.203.13.135.198.335.203.6l-1.576.003zM110.639 77v-1.764c0-.25.011-.437.033-.56a.833.833 0 01.482-.637c.158-.075.343-.112.555-.112.175 0 .337.025.484.075.147.05.275.126.384.226v-.954a1.624 1.624 0 00-.776-.194c-.27 0-.508.06-.71.179-.203.12-.354.289-.452.508v-.595h-1.001V77h1.001zm3.8 0v-2.19c0-.288.053-.512.156-.674a.482.482 0 01.426-.243c.178 0 .306.06.385.18.078.12.117.318.117.596V77h.995v-2.485c0-.476-.092-.834-.277-1.075-.184-.24-.458-.36-.82-.36-.242 0-.448.058-.619.174a.931.931 0 00-.362.492v-.574h-.995V77h.995zm4.335.1c.228 0 .436-.046.625-.138.19-.09.344-.22.465-.39V77h.995v-2.184c0-.652-.126-1.104-.378-1.357-.252-.253-.689-.38-1.31-.38-.256 0-.497.022-.725.066-.228.043-.453.11-.674.201v.855c.244-.132.478-.229.703-.29.224-.06.456-.09.695-.09.228 0 .4.042.518.125a.422.422 0 01.176.367v.168h-.694c-.606 0-1.053.106-1.343.32-.29.213-.434.542-.434.989 0 .412.121.734.364.964.243.23.582.345 1.017.345zm.256-.695a.563.563 0 01-.417-.154.559.559 0 01-.154-.413c0-.233.075-.397.223-.492.148-.096.409-.144.782-.144h.4v.069c0 .357-.073.636-.218.835-.146.2-.351.3-.616.3zm3.357.595v-2.458c0-.284.021-.475.065-.57.043-.096.122-.144.236-.144.113 0 .193.05.239.147.045.098.068.287.068.567V77h.81v-2.458c0-.28.023-.469.069-.567.045-.098.125-.147.239-.147.114 0 .192.048.236.144.043.095.065.286.065.57V77h.82v-2.157c0-.72-.063-1.194-.19-1.422-.126-.227-.355-.341-.685-.341a.753.753 0 00-.427.116.844.844 0 00-.287.359.55.55 0 00-.233-.337.707.707 0 00-.424-.138.716.716 0 00-.42.131.747.747 0 00-.274.357v-.396h-.728V77h.82zm5.404.1a3.806 3.806 0 001.477-.287v-.921a3.16 3.16 0 01-.702.315c-.223.066-.45.1-.68.1-.348 0-.61-.075-.786-.223-.175-.148-.264-.373-.267-.673h2.595v-.407c0-.61-.157-1.084-.47-1.42-.314-.336-.754-.504-1.321-.504-.563 0-1.007.18-1.333.543-.326.362-.49.856-.49 1.48 0 .645.17 1.139.509 1.482.338.343.827.514 1.468.514zm-.947-2.438c.025-.257.106-.456.242-.596.137-.14.32-.21.55-.21.256 0 .449.067.58.203.131.135.199.335.203.6l-1.575.003z" fill="#1A202C" fill-rule="nonzero"/></g></svg>