<svg viewBox="0 0 280 175" xmlns="http://www.w3.org/2000/svg"><g fill="none" fill-rule="evenodd"><path d="M0 0h280v175H0z"/><path fill="#B2F5EA" d="M157 28h47v47h-47z"/><path fill="#1A202C" d="M173 120h23v23h-23z"/><path fill="#319795" d="M97 46h83v81H97z"/><path fill="#1A202C" d="M91 60h12v12H91z"/><path fill="#B2F5EA" d="M76 117h29v30H76z"/><path d="M154.138 109.694c1.356 2.18 3.12 3.78 6.238 3.78 2.62 0 4.294-1.288 4.294-3.07 0-2.134-1.72-2.89-4.604-4.133l-1.58-.667c-4.563-1.914-7.594-4.312-7.594-9.38 0-4.67 3.613-8.224 9.26-8.224 4.02 0 6.91 1.378 8.993 4.985l-4.924 3.112c-1.084-1.914-2.254-2.668-4.07-2.668-1.851 0-3.025 1.157-3.025 2.668 0 1.868 1.175 2.624 3.888 3.78l1.58.667c5.373 2.269 8.406 4.581 8.406 9.78 0 5.605-4.472 8.676-10.478 8.676-5.872 0-9.666-2.755-11.522-6.366l5.138-2.94zm-21.971.447c.997 1.755 1.904 3.24 4.085 3.24 2.085 0 3.4-.81 3.4-3.959V88H146v21.507c0 6.524-3.853 9.493-9.478 9.493-5.082 0-8.025-2.61-9.522-5.755l5.167-3.104z" fill="#FFF" fill-rule="nonzero"/></g></svg>