<svg viewBox="0 0 280 175" xmlns="http://www.w3.org/2000/svg"><g fill="none" fill-rule="evenodd"><path d="M0 0h280v175H0z"/><g transform="translate(33 24)"><path fill="#295E61" d="M0 34h134v68H0z"/><path d="M19.54 74L26 65.494 19.54 57H15l6.46 8.494L15 74h4.54zM39 76.95v-.9H27v.9h12z" fill="#4FD1C5" fill-rule="nonzero"/><path fill="#1A202C" d="M0 34h134v10H0z"/><circle fill="#4FD1C5" cx="13" cy="39" r="2"/><circle fill="#E6FFFA" cx="19" cy="39" r="2"/><circle fill="#295E61" cx="7" cy="39" r="2"/><path d="M211.603 57.844L156.155 2.396a8.179 8.179 0 00-11.567 0l-11.513 11.516-5.659 5.657-38.021 38.018a8.185 8.185 0 000 11.57l55.451 55.448a8.181 8.181 0 0011.567 0l55.19-55.191a8.18 8.18 0 000-11.57" fill="#4FD1C5"/><path d="M203.924 59.101l-48.026-48.026a7.084 7.084 0 00-10.019 0l-9.972 9.974 12.65 12.652a8.41 8.41 0 0110.653 10.725l12.194 12.192c2.95-1.017 6.353-.36 8.709 2a8.428 8.428 0 010 11.92 8.429 8.429 0 01-13.757-9.167l-11.373-11.372v29.925c.802.397 1.56.927 2.23 1.593a8.43 8.43 0 11-9.159-1.84l-.001-30.2a8.427 8.427 0 01-4.575-11.054l-12.472-12.474-32.932 32.93a7.09 7.09 0 000 10.02l48.029 48.027a7.086 7.086 0 0010.019 0l47.802-47.804a7.085 7.085 0 000-10.02" fill="#FFF"/></g></g></svg>