<svg viewBox="0 0 280 175" xmlns="http://www.w3.org/2000/svg"><g fill="none" fill-rule="evenodd"><path d="M0 0h280v175H0z"/><path fill="#295E61" d="M104 34h94v113h-94z"/><path fill="#B2F5EA" d="M98 28h94v100h-12v13H98z"/><path fill="#295E61" d="M83 67h75v41H83z"/><path d="M119 73c-7.574 0-14.442 1.569-19.514 4.187C94.413 79.806 91 83.578 91 88c0 4.422 3.413 8.194 8.486 10.813C104.558 101.43 111.426 103 119 103s14.442-1.569 19.514-4.187C143.587 96.194 147 92.422 147 88c0-4.422-3.413-8.194-8.486-10.813C133.442 74.57 126.574 73 119 73zm0 2.308c7.246 0 13.795 1.528 18.434 3.925 4.64 2.394 7.233 5.54 7.233 8.767 0 3.227-2.593 6.373-7.233 8.767-4.64 2.397-11.188 3.925-18.434 3.925s-13.795-1.528-18.434-3.925c-4.64-2.394-7.233-5.54-7.233-8.767 0-3.227 2.593-6.373 7.233-8.767 4.64-2.397 11.188-3.925 18.434-3.925zm-2.908 2.307l-2.925 13.847h3.062l1.477-6.924h2.447c.78 0 1.299.127 1.54.384.237.256.287.743.15 1.442l-1.116 5.098h3.108l1.213-5.513c.26-1.32.063-2.29-.584-2.88-.66-.6-1.823-.838-3.554-.838h-2.73l.97-4.616h-3.058zm-13.425 4.616L100.3 94.923h3.086l.615-3.461h1.923c4.02 0 6.207-.92 7.023-4.332.702-2.934-1.094-4.9-4.06-4.9h-6.221zm24.5 0L124.8 94.923h3.086l.615-3.461h1.923c4.02 0 6.207-.92 7.023-4.332.702-2.934-1.094-4.9-4.06-4.9h-6.221zm-21.848 2.307h2.402c1.996 0 2.415.888 2.31 1.875-.269 2.547-1.873 2.74-3.595 2.74h-2.001l.884-4.615zm24.5 0h2.402c1.996 0 2.415.888 2.31 1.875-.269 2.547-1.873 2.74-3.595 2.74h-2.001l.884-4.615z" fill="#FFF" fill-rule="nonzero"/><path fill="#4FD1C5" d="M180 128h12l-12 13z"/></g></svg>