<?xml version="1.0" encoding="UTF-8"?>
<svg width="280px" height="175px" viewBox="0 0 280 175" version="1.1" xmlns="http://www.w3.org/2000/svg" xmlns:xlink="http://www.w3.org/1999/xlink">
    <title>bonus_csslibraries</title>
    <g id="bonus_csslibraries" stroke="none" stroke-width="1" fill="none" fill-rule="evenodd">
        <rect id="Rectangle-Copy-3" stroke="#4A5569" stroke-width="2" fill="#1A202C" x="108" y="57" width="83" height="81"></rect>
        <rect id="Rectangle-Copy-3" stroke="#4A5569" stroke-width="2" fill="#1A202C" x="102" y="50" width="83" height="81"></rect>
        <rect id="Rectangle-Copy-4" stroke="#4A5569" stroke-width="2" fill="#1A202C" x="95" y="43" width="83" height="81"></rect>
        <rect id="Rectangle-Copy-3" fill="#A0AEC0" x="89" y="37" width="83" height="81"></rect>
        <path d="M102.392,110.24 C105.752,110.24 107.96,108.2 107.96,105.056 L104.936,105.056 C104.936,106.712 104,107.6 102.392,107.6 C100.76,107.6 99.824,106.712 99.824,105.056 L99.824,97.424 C99.824,95.768 100.76,94.88 102.392,94.88 C104,94.88 104.936,95.768 104.936,97.424 L107.96,97.424 C107.96,94.28 105.752,92.24 102.392,92.24 C99.008,92.24 96.824,94.256 96.824,97.424 L96.824,105.056 C96.824,108.224 99.008,110.24 102.392,110.24 Z M115.414078,110.24 C118.918078,110.24 121.174078,108.224 121.174078,105.104 C121.174078,102.464 119.590078,100.4 116.998078,99.752 L114.574078,99.152 C113.446078,98.84 112.798078,98.12 112.798078,97.04 C112.798078,95.72 113.758078,94.832 115.246078,94.832 C116.782078,94.832 117.790078,95.72 117.790078,97.088 L120.718078,97.088 C120.718078,94.16 118.558078,92.24 115.246078,92.24 C111.958078,92.24 109.870078,94.16 109.870078,97.136 C109.870078,99.56 111.430078,101.432 113.974078,102.08 L116.326078,102.68 C117.550078,102.992 118.222078,103.952 118.222078,105.104 C118.222078,106.616 117.142078,107.624 115.414078,107.624 C113.614078,107.624 112.462078,106.64 112.462078,105.056 L109.510078,105.056 C109.510078,108.248 111.838078,110.24 115.414078,110.24 Z M128.556156,110.24 C132.060156,110.24 134.316156,108.224 134.316156,105.104 C134.316156,102.464 132.732156,100.4 130.140156,99.752 L127.716156,99.152 C126.588156,98.84 125.940156,98.12 125.940156,97.04 C125.940156,95.72 126.900156,94.832 128.388156,94.832 C129.924156,94.832 130.932156,95.72 130.932156,97.088 L133.860156,97.088 C133.860156,94.16 131.700156,92.24 128.388156,92.24 C125.100156,92.24 123.012156,94.16 123.012156,97.136 C123.012156,99.56 124.572156,101.432 127.116156,102.08 L129.468156,102.68 C130.692156,102.992 131.364156,103.952 131.364156,105.104 C131.364156,106.616 130.284156,107.624 128.556156,107.624 C126.756156,107.624 125.604156,106.64 125.604156,105.056 L122.652156,105.056 C122.652156,108.248 124.980156,110.24 128.556156,110.24 Z" id="CSS" fill="#FFFFFF" fill-rule="nonzero"></path>
    </g>
</svg>