<svg viewBox="0 0 280 175" xmlns="http://www.w3.org/2000/svg"><g fill="none" fill-rule="evenodd"><path d="M0 0h280v175H0z"/><path d="M146.374 118.716L110.75 83.09l29.655-29.655a128.982 128.982 0 0163.393-34.743l8.952-1.976-1.976 8.953A128.975 128.975 0 01176.03 89.06l-29.655 29.656z" fill="#4C50BF"/><path fill="#1A202C" d="M111.749 93.282l4.565-4.566 24.435 24.435-4.566 4.565zM114.565 77L99 73.84 125.435 47 141 50.16zM153 114.435L156.16 130 183 103.565 179.84 88z"/><path d="M177.798 51.665a7.003 7.003 0 010-9.9 7 7 0 110 9.9z" fill="#FFF"/><path fill="#4C50BF" d="M77.434 155.723l17.254-17.46 1.568 1.587-17.253 17.46z"/><path fill="#A3BFFA" d="M79.003 147.786l6.274-6.35 1.568 1.588-6.274 6.35z"/><path fill="#4C50BF" d="M71.16 149.374l17.254-17.461 1.568 1.587-17.253 17.461z"/><path fill="#A3BFFA" d="M93.635 146.448l10.979-11.112 1.568 1.588-10.979 11.111zm13.768-27.404l12.548-12.699 1.568 1.588-12.548 12.699z"/><path fill="#1A202C" d="M74.297 158.898l1.569-1.587 1.568 1.587-1.568 1.588zm-3.137-3.175l1.569-1.587 1.568 1.587-1.568 1.588zm-3.136-3.174l1.568-1.588 1.568 1.588-1.568 1.587z"/><path fill="#4C50BF" d="M96.256 136.675l25.096-25.398 1.569 1.587-25.096 25.398z"/><path fill="#A3BFFA" d="M87.63 139.056l16.469-16.668 1.568 1.588-16.469 16.667zm2.352-8.731l9.411-9.524 1.569 1.587-9.411 9.525z"/><path fill="#4C50BF" d="M106.015 133.467l5.49-5.556 1.568 1.588-5.49 5.555zm-5.053-14.253l12.548-12.7 1.568 1.588L102.53 120.8z"/><path fill="#A3BFFA" d="M113.073 126.324l12.548-12.7 1.569 1.588-12.548 12.7z"/></g></svg>