<svg viewBox="0 0 280 175" xmlns="http://www.w3.org/2000/svg"><g fill="none" fill-rule="evenodd"><path d="M0 0h280v175H0z"/><g transform="translate(79 38)"><path d="M45.87 100h-8.39c-2.355 0-3.053-.694-7.226-10.974l-2.074-.837c-8.783 3.95-9.86 3.95-10.515 3.95h-1.333l-1.059-.955-5.936-5.79c-1.725-1.7-1.725-2.598 2.803-12.834l-.81-1.916C.723 66.862 0 66.168 0 63.756v-8.184c0-2.386.648-3.013 11.287-7.117l.81-1.916C7.506 36.893 7.275 35.61 9.1 33.842l6.883-6.708 1.445-.025c.61 0 1.72 0 10.658 3.739l2.062-.831C34.028 19.701 34.72 19 37.13 19h8.39c2.38 0 3.016.632 7.22 10.974l2.062.83c8.77-3.949 9.86-3.949 10.52-3.949h1.333l1.06.949 5.954 5.778c1.72 1.705 1.72 2.604-2.81 12.846l.817 1.928C82.352 52.163 83 52.789 83 55.238v8.171c0 2.393-.648 3.02-11.287 7.123l-.81 1.922c4.747 9.97 4.766 10.962 3.028 12.679l-6.914 6.733-1.445.025c-.61 0-1.72 0-10.646-3.745l-2.068.843C48.972 99.3 48.274 100 45.87 100z" fill="#FFF" fill-rule="nonzero"/><path d="M100.185 50h-5.156c-1.446 0-1.875-.429-4.44-6.774l-1.274-.516c-5.397 2.437-6.059 2.437-6.46 2.437h-.82l-.65-.589-3.648-3.574c-1.06-1.05-1.06-1.604 1.723-7.922l-.498-1.183C72.444 29.545 72 29.116 72 27.627v-5.051c0-1.474.398-1.86 6.935-4.394L79.433 17c-2.821-5.955-2.963-6.747-1.841-7.838l4.23-4.141.887-.015c.375 0 1.056 0 6.549 2.307l1.267-.512C92.909.432 93.334 0 94.815 0h5.156c1.462 0 1.852.39 4.436 6.774l1.266.513c5.39-2.438 6.06-2.438 6.465-2.438h.819l.65.585 3.66 3.567c1.056 1.053 1.056 1.607-1.727 7.93l.502 1.19c6.56 2.35 6.958 2.736 6.958 4.248v5.044c0 1.477-.398 1.864-6.935 4.397l-.498 1.187c2.917 6.153 2.928 6.766 1.86 7.826l-4.248 4.156-.888.015c-.375 0-1.056 0-6.541-2.311l-1.27.52c-2.39 6.365-2.819 6.797-4.296 6.797z" fill="#1A202C" fill-rule="nonzero"/><ellipse fill="#657EEA" cx="41" cy="59.5" rx="17" ry="16.5"/><circle fill="#657EEA" cx="97" cy="25" r="10"/></g></g></svg>