<?xml version="1.0" encoding="UTF-8"?>
<svg width="280px" height="175px" viewBox="0 0 280 175" version="1.1" xmlns="http://www.w3.org/2000/svg" xmlns:xlink="http://www.w3.org/1999/xlink">
    <title>bonus_javascriptlibraries</title>
    <g id="bonus_javascriptlibraries" stroke="none" stroke-width="1" fill="none" fill-rule="evenodd">
        <rect id="Rectangle-Copy-48" x="0" y="0" width="280" height="175"></rect>
        <rect id="Rectangle-Copy-48" x="0" y="0" width="280" height="175"></rect>
        <g id="Group-6-Copy-7" transform="translate(72.000000, 35.000000)">
            <polygon id="Fill-1" fill="#1A202C" points="0.181818182 83.312352 43.1818182 108 43.1818182 50.8086576 0.181818182 26"></polygon>
            <polygon id="Fill-2" fill="#CFD7E3" points="44.1818182 50.8086576 44.1818182 108 87.1818182 83.312352 87.1818182 26"></polygon>
            <polygon id="Fill-3" fill="#A0AEC0" points="43.6822455 0 0.181818182 24.9209936 43.6822455 50 87.1818182 24.9209936"></polygon>
        </g>
        <g id="Group-6-Copy-7" transform="translate(160.181818, 71.000000)">
            <polygon id="Fill-1" fill="#1A202C" points="0 45.906446 23 59.4545455 23 28.0690527 0 14.4545455"></polygon>
            <polygon id="Fill-2" fill="#CFD7E3" points="24 28.0690527 24 59.4545455 47 45.906446 47 14.4545455"></polygon>
            <polygon id="Fill-3" fill="#A0AEC0" points="23.5002308 0 0 13.4573366 23.5002308 27 47 13.4573366"></polygon>
        </g>
        <g id="Group-6" transform="translate(90.000000, 113.000000)" fill="#FFFFFF">
            <path d="M10.9411258,15.6262803 C9.80980945,14.3859624 8.98604218,12.7039393 9.02135855,11.0029566 L11.3005149,12.3074942 C11.2997876,13.4841127 12.218944,14.5853844 13.263744,15.0530145 C14.9435404,15.8048353 14.852224,13.9968006 14.2875404,12.9959335 C13.8096058,12.1488526 12.7332131,11.4690838 12.002944,10.8153555 C10.9655913,9.88674277 10.0688931,8.72070231 9.58831127,7.40593353 C8.77906036,5.1921763 9.03561309,1.97784104 12.2556858,3.34073121 C14.6809076,4.3672052 16.7564567,6.94830347 16.7157876,9.64471965 L14.4238895,8.3387948 C14.4096931,7.36304335 13.787904,6.49870809 12.9537804,6.02798555 C12.0625513,5.52500867 11.3948276,5.66778324 11.5123549,6.82402601 C11.641024,8.09009538 13.3998604,9.12353468 14.287744,9.93292775 C15.731584,11.2490838 16.851584,13.259922 16.9778967,15.2213382 L16.9778967,16.0303844 C16.9320785,16.2120896 16.924224,16.4016272 16.881984,16.5852688 C16.753344,17.1446908 16.4212422,17.6757312 15.8585076,17.8802399 C15.7195113,17.9307601 15.575744,17.9504711 15.4360785,17.995211 C15.2759331,17.9843439 15.0990604,18.0101532 14.9415331,17.995211 C13.6073367,17.8685925 11.8241513,16.5943728 10.9411258,15.6262803 Z" id="Fill-1"></path>
            <path d="M5.62189582,0 L7.97085671,1.33094835 L8,1.41751061 L7.99973263,10.707627 C7.8233281,14.0171206 5.03023657,13.1612754 3.11283994,11.7515351 C1.31320478,10.4283856 0.125905442,8.4105591 0.00591590088,6.20722154 C0.00333132794,6.15999794 -0.0207022296,5.96998535 0.0511310734,5.99143237 L2.3990522,7.30919138 C2.40900429,8.25873826 2.85625424,9.17826504 3.63453748,9.75753538 C4.30515988,10.2566661 5.33165125,10.6623532 5.55437014,9.52333847 C5.59233662,6.60281589 5.6475633,3.652818 5.56126233,0.732152055 C5.55407306,0.48863659 5.56904576,0.243314758 5.56248035,0 L5.62189582,0 Z" id="Fill-4"></path>
        </g>
    </g>
</svg>