<svg viewBox="0 0 280 175" xmlns="http://www.w3.org/2000/svg" xmlns:xlink="http://www.w3.org/1999/xlink"><defs><path id="a" d="M0 0h45v47H0z"/></defs><g fill="none" fill-rule="evenodd"><path d="M0 0h280v175H0z"/><path fill="#A3BFFA" d="M45 43h83v81H45z"/><g transform="translate(64 59)"><mask id="b" fill="#fff"><use xlink:href="#a"/></mask><path d="M43.549 20.487l-7.258 4.24v-8.39l4.21-2.459 3.048-1.78v8.39zm-8.71 15.176L18.87 44.99v-8.474l11.826-6.848 4.141-2.4v8.395zM1.45 7.098l3.05 1.78 4.21 2.46v19.749l.001.003H8.71c.001.029.008.056.012.084.004.036.005.071.014.107v.002c.008.028.024.054.034.082.013.031.023.063.038.091l.002.003c.014.026.037.048.054.072.02.026.036.054.06.078l.001.002c.021.02.046.034.07.053.025.02.049.044.077.061l.004.002s.002 0 .003.002l8.341 4.788v8.473L1.451 35.663V7.098zm7.984-5.512l7.255 4.238-7.255 4.238L2.18 5.824l7.254-4.238zm3.774 26.448l-3.047 1.78V11.337l4.21-2.459 3.047-1.78v18.476l-4.21 2.46zM35.565 6.588l7.254 4.237-7.254 4.237-7.256-4.237 7.256-4.237zm-.727 9.75v8.388l-3.047-1.78-4.21-2.459v-8.389l3.047 1.78 4.21 2.46zM18.143 35.24L10.9 31.08l7.607-4.442h.001l8.346-4.877 7.251 4.236-5.32 3.08-10.642 6.163zm26.832-24.609c-.005-.021-.018-.04-.025-.061-.014-.039-.028-.079-.047-.115-.013-.024-.034-.044-.05-.065-.021-.03-.04-.06-.064-.087-.022-.02-.048-.036-.071-.054-.027-.022-.05-.046-.08-.063h-.002L35.927 5.1a.72.72 0 00-.725 0l-8.709 5.088h-.001c-.03.017-.054.041-.08.063-.024.018-.05.034-.071.054-.026.027-.043.058-.065.087-.017.021-.036.041-.05.065-.02.036-.032.076-.047.115-.008.021-.02.04-.025.061a.728.728 0 00-.025.193v9.662l-7.258 4.24V5.823a.719.719 0 00-.025-.192c-.007-.023-.017-.041-.025-.063-.015-.038-.028-.077-.048-.113-.014-.024-.032-.044-.05-.066-.02-.03-.039-.06-.064-.086-.02-.021-.047-.036-.07-.056-.027-.02-.052-.044-.08-.061l-.002-.001L9.797.099a.714.714 0 00-.724 0L.363 5.186v.001c-.03.017-.054.041-.08.061-.024.02-.052.035-.072.056-.024.026-.043.056-.065.086-.016.022-.036.042-.049.066-.02.036-.033.075-.047.113-.008.022-.02.04-.025.063A.719.719 0 000 5.824v30.264a.74.74 0 00.364.64l17.419 10.173a.58.58 0 00.12.05c.02.006.036.018.056.024a.677.677 0 00.372 0c.017-.004.033-.015.048-.022a.558.558 0 00.128-.052l17.42-10.173a.742.742 0 00.364-.64v-9.663l8.345-4.874a.735.735 0 00.364-.639V10.825a.728.728 0 00-.025-.193z" fill="#FFF" mask="url(#b)"/></g><path fill="#4C50BF" d="M158 43h83v81h-83z"/><path fill="#1A202C" d="M121 61h45v45h-45z"/><path d="M217.537 73A21.317 21.317 0 01220 82.994c0 7.685-4.021 14.395-10 18.006l6.143-18.396c1.147-2.972 1.529-5.349 1.529-7.462 0-.767-.049-1.479-.135-2.142zm-15.21-.472c1.196-.062 2.273-.188 2.273-.188 1.07-.126.944-1.696-.126-1.633 0 0-3.217.251-5.293.251-1.951 0-5.23-.251-5.23-.251-1.07-.063-1.196 1.57-.126 1.633 0 0 1.013.126 2.083.188l3.094 8.462L194.655 94l-7.23-21.472c1.196-.062 2.272-.188 2.272-.188 1.07-.126.943-1.696-.127-1.633 0 0-3.215.251-5.292.251-.373 0-.812-.009-1.278-.024 3.55-5.38 9.653-8.934 16.591-8.934 5.17 0 9.876 1.973 13.409 5.204-.086-.005-.169-.016-.257-.016-1.95 0-3.335 1.697-3.335 3.519 0 1.633.944 3.015 1.95 4.649.756 1.32 1.638 3.016 1.638 5.466 0 1.697-.654 3.666-1.51 6.408l-1.982 6.606-7.176-21.308zM198.977 102c-2.077 0-4.08-.284-5.976-.804L199.347 84l6.502 16.61c.042.097.095.187.151.272a22.49 22.49 0 01-7.024 1.118zM179 82.407c0-2.995.662-5.838 1.844-8.407L191 101c-7.103-3.348-12-10.415-12-18.593zM199.5 60C187.093 60 177 70.093 177 82.5c0 12.406 10.093 22.5 22.5 22.5 12.406 0 22.5-10.094 22.5-22.5 0-12.407-10.094-22.5-22.5-22.5z" fill="#FFF"/><path d="M139.966 89.068l5.148-12.744h-2.448l-3.582 9.63-3.474-9.63H133l5.004 12.744h1.962zm9.828.324a6.21 6.21 0 001.782-.252 4.397 4.397 0 001.485-.756 3.65 3.65 0 001.017-1.269c.252-.51.378-1.107.378-1.791 0-.756-.15-1.362-.45-1.818a3.606 3.606 0 00-1.116-1.098 5.928 5.928 0 00-1.458-.648 20.726 20.726 0 01-1.458-.486 4.424 4.424 0 01-1.116-.594c-.3-.228-.45-.558-.45-.99 0-.288.06-.537.18-.747.12-.21.279-.381.477-.513.198-.132.42-.228.666-.288a3.363 3.363 0 012.034.153c.402.162.723.417.963.765l1.656-1.746a4.527 4.527 0 00-1.701-1.008 6.452 6.452 0 00-3.681-.072 4.636 4.636 0 00-1.503.711 3.704 3.704 0 00-1.062 1.197c-.27.48-.405 1.05-.405 1.71 0 .756.15 1.359.45 1.809.3.45.672.81 1.116 1.08.444.27.93.483 1.458.639.528.156 1.014.321 1.458.495.444.174.816.387 1.116.639.3.252.45.612.45 1.08 0 .288-.066.543-.198.765a1.69 1.69 0 01-.522.549 2.45 2.45 0 01-.72.324 3.059 3.059 0 01-2.223-.243 2.86 2.86 0 01-1.089-.981l-1.71 1.656a4.404 4.404 0 001.89 1.332 6.687 6.687 0 002.286.396z" fill="#FFF" fill-rule="nonzero"/></g></svg>