<svg width="280" height="175" xmlns="http://www.w3.org/2000/svg"><g fill="none" fill-rule="evenodd"><path fill="#B83280" d="M109.04 108.237l31 17.763V84.85l-31-17.85z"/><path fill="#F687B3" d="M140.04 84.85V126l31-17.763V67z"/><path fill="#1A202C" d="M140.04 49l-31 17.943 31 18.057 31-18.057z"/><g><path fill="#B83280" d="M47.04 108.237l31 17.763V84.85L47.04 67z"/><path fill="#F687B3" d="M78.04 84.85V126l31-17.763V67z"/><path fill="#1A202C" d="M78.04 49l-31 17.943L78.04 85l31-18.057z"/></g><g><path fill="#B83280" d="M171.04 108.237l31 17.763V84.85l-31-17.85z"/><path fill="#F687B3" d="M202.04 84.85V126l31-17.763V67z"/><path fill="#1A202C" d="M202.04 49l-31 17.943 31 18.057 31-18.057z"/></g></g></svg>