<svg viewBox="0 0 280 175" xmlns="http://www.w3.org/2000/svg" xmlns:xlink="http://www.w3.org/1999/xlink"><defs><path id="a" d="M0 0h45v47H0z"/></defs><g fill="none" fill-rule="evenodd"><path d="M0 0h280v175H0z"/><path fill="#5967D8" d="M79 26h71v71H79z"/><path fill="#1A202C" d="M95 119h23v23H95z"/><path fill="#A3BFFA" d="M108 49h83v81h-83z"/><path fill="#1A202C" d="M185 42h12v12h-12z"/><g transform="translate(126 65)"><mask id="b" fill="#fff"><use xlink:href="#a"/></mask><path d="M43.549 20.487l-7.258 4.24v-8.39l4.21-2.459 3.048-1.78v8.39zm-8.71 15.176L18.87 44.99v-8.474l11.826-6.848 4.141-2.4v8.395zM1.45 7.098l3.05 1.78 4.21 2.46v19.749l.001.003H8.71c.001.029.008.056.012.084.004.036.005.071.014.107v.002c.008.028.024.054.034.082.013.031.023.063.038.091l.002.003c.014.026.037.048.054.072.02.026.036.054.06.078l.001.002c.021.02.046.034.07.053.025.02.049.044.077.061l.004.002s.002 0 .003.002l8.341 4.788v8.473L1.451 35.663V7.098zm7.984-5.512l7.255 4.238-7.255 4.238L2.18 5.824l7.254-4.238zm3.774 26.448l-3.047 1.78V11.337l4.21-2.459 3.047-1.78v18.476l-4.21 2.46zM35.565 6.588l7.254 4.237-7.254 4.237-7.256-4.237 7.256-4.237zm-.727 9.75v8.388l-3.047-1.78-4.21-2.459v-8.389l3.047 1.78 4.21 2.46zM18.143 35.24L10.9 31.08l7.607-4.442h.001l8.346-4.877 7.251 4.236-5.32 3.08-10.642 6.163zm26.832-24.609c-.005-.021-.018-.04-.025-.061-.014-.039-.028-.079-.047-.115-.013-.024-.034-.044-.05-.065-.021-.03-.04-.06-.064-.087-.022-.02-.048-.036-.071-.054-.027-.022-.05-.046-.08-.063h-.002L35.927 5.1a.72.72 0 00-.725 0l-8.709 5.088h-.001c-.03.017-.054.041-.08.063-.024.018-.05.034-.071.054-.026.027-.043.058-.065.087-.017.021-.036.041-.05.065-.02.036-.032.076-.047.115-.008.021-.02.04-.025.061a.728.728 0 00-.025.193v9.662l-7.258 4.24V5.823a.719.719 0 00-.025-.192c-.007-.023-.017-.041-.025-.063-.015-.038-.028-.077-.048-.113-.014-.024-.032-.044-.05-.066-.02-.03-.039-.06-.064-.086-.02-.021-.047-.036-.07-.056-.027-.02-.052-.044-.08-.061l-.002-.001L9.797.099a.714.714 0 00-.724 0L.363 5.186v.001c-.03.017-.054.041-.08.061-.024.02-.052.035-.072.056-.024.026-.043.056-.065.086-.016.022-.036.042-.049.066-.02.036-.033.075-.047.113-.008.022-.02.04-.025.063A.719.719 0 000 5.824v30.264a.74.74 0 00.364.64l17.419 10.173a.58.58 0 00.12.05c.02.006.036.018.056.024a.677.677 0 00.372 0c.017-.004.033-.015.048-.022a.558.558 0 00.128-.052l17.42-10.173a.742.742 0 00.364-.64v-9.663l8.345-4.874a.735.735 0 00.364-.639V10.825a.728.728 0 00-.025-.193z" fill="#FFF" mask="url(#b)"/></g><path fill="#5967D8" d="M173 95h47v49h-47z"/><path d="M205.768 115a10.658 10.658 0 011.232 4.997c0 3.843-2.01 7.198-5 9.003l3.071-9.198c.574-1.486.765-2.674.765-3.73 0-.384-.024-.74-.068-1.072zm-7.104.264c.598-.031 1.136-.094 1.136-.094.535-.063.472-.848-.063-.817 0 0-1.608.126-2.647.126-.975 0-2.614-.126-2.614-.126-.536-.031-.599.785-.063.817 0 0 .506.063 1.041.094l1.547 4.231-2.173 6.505-3.616-10.736a20.206 20.206 0 001.137-.094c.534-.063.471-.848-.064-.817 0 0-1.608.126-2.646.126-.186 0-.406-.004-.639-.012a9.922 9.922 0 018.296-4.467 9.9 9.9 0 016.704 2.602c-.043-.002-.084-.008-.129-.008-.975 0-1.667.848-1.667 1.76 0 .816.472 1.507.975 2.324.378.66.819 1.508.819 2.733 0 .848-.327 1.833-.755 3.204l-.991 3.303-3.588-10.654zM196.758 130a9.668 9.668 0 01-2.758-.402l2.93-8.598 3 8.305a.93.93 0 00.07.136 9.654 9.654 0 01-3.242.559zM187 120.048c0-1.442.331-2.811.922-4.048L193 129c-3.552-1.612-6-5.015-6-8.952zM197 109c-6.065 0-11 4.934-11 11 0 6.065 4.935 11 11 11s11-4.935 11-11c0-6.066-4.935-11-11-11z" fill="#FFF"/></g></svg>