<svg width="280" height="175" xmlns="http://www.w3.org/2000/svg" xmlns:xlink="http://www.w3.org/1999/xlink"><defs><path id="a" d="M.444 0h27v28h-27z"/></defs><g fill="none" fill-rule="evenodd"><path fill="#A3BFFA" opacity=".201" d="M74 21h134v134H74z"/><path fill="#5967D8" d="M88 35h107.2v107H88z"/><path fill="#4C50BF" d="M99 46h84.229v85H99z"/><path fill="#1A202C" d="M113 60h56.184v56H113z"/><g transform="translate(128 74)"><mask id="b" fill="#fff"><use xlink:href="#a"/></mask><path d="M26.573 12.205l-4.354 2.526V9.733l2.526-1.465 1.828-1.06v4.997zm-5.226 9.041l-9.58 5.557v-5.049l7.095-4.08 2.485-1.429v5.001zM1.315 4.23l1.829 1.06L5.67 6.754V18.522c0 .017.004.033.007.05.002.02.003.042.008.064.005.017.014.033.02.05.009.018.014.037.024.054v.001c.01.016.023.029.033.043.012.016.022.033.036.047.013.013.028.022.043.033.015.012.029.026.046.036h.002c0 .002.001.002.002.003l5.005 2.852v5.048l-9.58-5.557V4.23zM6.105.945l4.353 2.525-4.353 2.524L1.753 3.47 6.105.945zM8.37 16.701l-1.829 1.06V6.755l2.526-1.465 1.829-1.06v11.006L8.37 16.701zM21.783 3.925l4.353 2.524-4.353 2.524-4.354-2.524 4.354-2.524zm-.436 5.808v4.998L19.52 13.67l-2.526-1.465V7.207l1.828 1.061 2.526 1.465zM11.33 20.994l-4.346-2.477 4.564-2.647h.001l5.008-2.905 4.35 2.523-3.192 1.835-6.385 3.671zm16.1-14.66c-.004-.013-.012-.024-.016-.036-.008-.023-.016-.047-.028-.069-.008-.014-.02-.026-.03-.039-.013-.017-.024-.035-.039-.051-.012-.012-.028-.022-.042-.033-.016-.013-.03-.027-.048-.037h-.001L22 3.038a.435.435 0 00-.436 0l-5.225 3.03c-.019.011-.033.025-.049.038-.014.011-.03.02-.042.033-.016.016-.026.034-.039.051-.01.013-.022.025-.03.04-.012.02-.02.045-.028.068-.005.012-.012.023-.015.036a.431.431 0 00-.015.115v5.756l-4.355 2.526V3.47a.425.425 0 00-.015-.115c-.004-.013-.01-.024-.015-.037-.009-.023-.017-.046-.029-.068-.008-.014-.02-.026-.03-.04-.012-.017-.023-.035-.038-.05-.013-.013-.029-.021-.043-.033-.016-.012-.03-.027-.048-.037L6.322.058a.43.43 0 00-.435 0L.663 3.089l-.001.001c-.018.01-.033.025-.048.037-.015.012-.031.02-.043.033-.015.015-.026.033-.04.05-.009.014-.02.026-.028.04-.013.022-.02.045-.029.068-.005.013-.012.024-.015.037a.425.425 0 00-.015.115V21.5a.44.44 0 00.219.38l10.451 6.061a.35.35 0 00.072.03l.034.014a.41.41 0 00.223 0c.01-.002.02-.009.029-.013a.336.336 0 00.076-.03l10.453-6.061a.441.441 0 00.218-.382v-5.756l5.007-2.904a.437.437 0 00.218-.38v-6.01a.431.431 0 00-.015-.115z" fill="#FFF" mask="url(#b)"/></g></g></svg>