<svg viewBox="0 0 280 175" xmlns="http://www.w3.org/2000/svg"><g fill="none" fill-rule="evenodd"><path d="M0 0h280v175H0z"/><path fill="#A3BFFA" d="M89 43h127v84H89z"/><path fill="#5967D8" d="M144 137h17v-10h-17z"/><path fill="#A3BFFA" d="M141 139h23v-4h-23z"/><path fill="#4C50BF" d="M92 46h121v78H92z"/><g transform="translate(64 36)"><path fill="#1A202C" d="M0 0h88v63.179H0z"/><path fill="#5967D8" d="M0 0h88v11.282H0z"/><circle fill="#EBF4FF" cx="14.667" cy="5.641" r="2.256"/><circle fill="#EBF4FF" cx="21.436" cy="5.641" r="2.256"/><circle fill="#EBF4FF" cx="7.897" cy="5.641" r="2.256"/></g><path d="M197.783 77A18.912 18.912 0 01200 85.923c0 6.862-3.619 12.853-9 16.077l5.528-16.425c1.033-2.654 1.377-4.776 1.377-6.662 0-.685-.044-1.32-.122-1.913zm-13.388-.788a38.017 38.017 0 002.045-.164c.963-.111.85-1.485-.114-1.43 0 0-2.895.22-4.763.22-1.756 0-4.707-.22-4.707-.22-.964-.055-1.077 1.374-.113 1.43 0 0 .911.11 1.874.164l2.784 7.404L177.49 95l-6.508-18.788a37.386 37.386 0 002.045-.164c.963-.111.85-1.485-.114-1.43 0 0-2.894.22-4.763.22-.335 0-.73-.007-1.15-.02 3.196-4.709 8.688-7.818 14.932-7.818 4.652 0 8.889 1.726 12.068 4.554-.077-.005-.152-.014-.231-.014-1.756 0-3.002 1.484-3.002 3.078 0 1.43.85 2.639 1.756 4.068.68 1.155 1.473 2.64 1.473 4.784 0 1.484-.588 3.207-1.36 5.607l-1.783 5.78-6.458-18.645zM181.516 102c-1.916 0-3.766-.252-5.516-.714L181.859 86l6.001 14.764c.04.087.088.167.14.242a21.49 21.49 0 01-6.484.994zM163 85.473c0-2.662.552-5.19 1.536-7.473L173 102c-5.92-2.976-10-9.258-10-16.527zM181 65c-11.028 0-20 8.972-20 20 0 11.027 8.972 20 20 20s20-8.973 20-20c0-11.028-8.972-20-20-20z" fill="#FFF"/><path d="M80.867 74l4.79-6.249-4.79-6.24h-3.366l4.79 6.24L77.501 74h3.366zm14.291 2.25v-.9h-9v.9h9z" fill="#FFF" fill-rule="nonzero"/></g></svg>