<svg viewBox="0 0 280 175" xmlns="http://www.w3.org/2000/svg"><g fill="none" fill-rule="evenodd"><path d="M0 0h280v175H0z"/><path fill="#319795" d="M89 43h127v84H89zm55 94h17v-10h-17z"/><path fill="#319795" d="M141 139h23v-4h-23z"/><path fill="#295E61" d="M92 46h121v78H92z"/><g transform="translate(64 36)"><path fill="#319795" d="M0 0h88v63.179H0z"/><path fill="#1A202C" d="M0 0h88v11.282H0z"/><circle fill="#4FD1C5" cx="14.667" cy="5.641" r="2.256"/><circle fill="#E6FFFA" cx="21.436" cy="5.641" r="2.256"/><circle fill="#295E61" cx="7.897" cy="5.641" r="2.256"/></g><path fill="#4FD1C5" d="M77 58h22v2H77z"/><path fill="#E6FFFA" d="M77 62h14v2H77z"/><path fill="#4FD1C5" d="M77 66h22v2H77zm-4-8h2v2h-2zm0 4h2v2h-2zm0 4h2v2h-2z"/><path fill="#E6FFFA" d="M101 58h32v2h-32z"/><path fill="#4FD1C5" d="M94 62h29v2H94zm7 4h12v2h-12z"/><path fill="#E6FFFA" d="M115 66h16v2h-16z"/></g></svg>