<svg viewBox="0 0 280 175" xmlns="http://www.w3.org/2000/svg"><g fill="none" fill-rule="evenodd"><path d="M0 0h280v175H0z"/><path d="M118 38h45v44h-45z" fill="#1A202C"/><path d="M153.276 53A15.475 15.475 0 01155 60.138c0 5.49-2.815 10.283-7 12.862l4.3-13.14c.803-2.123 1.07-3.82 1.07-5.33 0-.548-.034-1.056-.094-1.53zm-10.747-.433c.837-.045 1.591-.135 1.591-.135.75-.09.66-1.22-.088-1.174 0 0-2.252.18-3.705.18-1.366 0-3.661-.18-3.661-.18-.75-.045-.838 1.129-.088 1.174 0 0 .709.09 1.458.135l2.165 6.082L137.16 68l-5.062-15.433c.838-.045 1.591-.135 1.591-.135.748-.09.66-1.22-.089-1.174 0 0-2.25.18-3.704.18-.261 0-.569-.006-.895-.016 2.485-3.868 6.757-6.422 11.614-6.422 3.618 0 6.913 1.418 9.386 3.74-.06-.003-.118-.01-.18-.01-1.365 0-2.334 1.218-2.334 2.528 0 1.174.66 2.167 1.365 3.341.529.95 1.146 2.168 1.146 3.93 0 1.219-.457 2.634-1.057 4.605l-1.387 4.748-5.024-15.315zM140.137 74a15.02 15.02 0 01-4.137-.58L140.394 61l4.501 11.996c.03.07.066.135.105.196a14.982 14.982 0 01-4.863.808zM126 59.916c0-2.107.441-4.108 1.23-5.916L134 73c-4.735-2.356-8-7.33-8-13.084zM140 44c-8.822 0-16 7.177-16 16 0 8.822 7.178 16 16 16s16-7.178 16-16c0-8.823-7.178-16-16-16z" fill="#FFF"/><path fill="#657EEA" d="M77.061 88h36v20h-36zM57 117h20v20H57zM113 117h20v20h-20z"/><path stroke="#A3BFFA" d="M118 60.5H95V88M77.06 98h-10v19M113 98h10v19"/><g><path fill="#657EEA" d="M203.939 88h-36v20h36zM224 117h-20v20h20zM168 117h-20v20h20z"/><path stroke="#A3BFFA" d="M163 60.5h23V88M203.94 98h10v19M168 98h-10v19"/></g></g></svg>