<svg viewBox="0 0 280 175" xmlns="http://www.w3.org/2000/svg" xmlns:xlink="http://www.w3.org/1999/xlink"><defs><path id="a" d="M0 .86h55.818V66H0z"/></defs><g fill="none" fill-rule="evenodd"><path d="M0 0h280v175H0z"/><g transform="translate(86 74)"><mask id="b" fill="#fff"><use xlink:href="#a"/></mask><path d="M41 30c0-.855.042-1.699.104-2.539C30.16 22.971 22.08 12.942 20.352.86 8.37 6.12 0 18.08 0 32c0 18.778 15.223 34 34 34a33.857 33.857 0 0021.818-7.929C46.873 51.946 41 41.661 41 30.001" fill="#EBF4FF" mask="url(#b)"/></g><path d="M173.896 72.538c-.948 12.825-9.002 23.667-20.247 28.603.227 1.587.35 3.21.35 4.86 0 10.471-4.736 19.833-12.181 26.07a33.842 33.842 0 0019.182 5.93c18.778 0 34-15.223 34-34 0-14.213-8.723-26.382-21.104-31.463" fill="#EBF4FF"/><path d="M154 106c0-1.65-.124-3.27-.351-4.859a33.875 33.875 0 01-13.65 2.86c-4.564 0-8.917-.907-12.895-2.54a34.42 34.42 0 00-.104 2.54c0 11.66 5.873 21.945 14.818 28.07 7.445-6.237 12.182-15.599 12.182-26.07" fill="#657EEA"/><path d="M139.182 77.93A33.857 33.857 0 01161 70c4.566 0 8.918.906 12.896 2.538.062-.839.104-1.683.104-2.538 0-18.778-15.222-34-34-34-18.777 0-34 15.222-34 34 0 1.65.124 3.271.351 4.86A33.875 33.875 0 01120 72c7.118 0 13.722 2.19 19.182 5.93" fill="#EBF4FF"/><path d="M127.104 101.462c.697-9.439 5.241-17.806 12.078-23.533A33.836 33.836 0 00120 72a33.855 33.855 0 00-13.649 2.86c1.73 12.082 9.81 22.111 20.753 26.601m12.078-23.531c7.679 5.257 13.088 13.582 14.467 23.21 11.244-4.935 19.299-15.777 20.247-28.602A33.894 33.894 0 00161 70a33.857 33.857 0 00-21.818 7.93" fill="#657EEA"/><path d="M139.182 77.93c-6.837 5.727-11.38 14.093-12.078 23.531a33.875 33.875 0 0012.896 2.54 33.86 33.86 0 0013.649-2.86c-1.379-9.629-6.788-17.954-14.467-23.212" fill="#4C50BF"/></g></svg>