<svg viewBox="0 0 280 175" xmlns="http://www.w3.org/2000/svg"><g fill="none" fill-rule="evenodd"><path d="M0 0h280v175H0z"/><g transform="translate(55 42)"><path fill="#B83280" d="M3 0h167v133H3z"/><path fill="#1A202C" d="M3 0h167v12H3z"/><circle fill="#B83280" cx="19.5" cy="6.5" r="2.5"/><circle fill="#F687B3" cx="26.5" cy="6.5" r="2.5"/><circle fill="#97266D" cx="11.5" cy="6.5" r="2.5"/><path fill="#97266D" d="M57 30h37v3H57z"/><path fill="#F687B3" d="M23 50.989h49v4.893H23zM57 35h24v3H57z"/><path fill="#97266D" d="M23 59.144h37v4.893H23z"/><path fill="#F687B3" d="M57 40h37v3H57zM23 67.299h49v4.893H23zM57 87h37v3H57zm-6-57h3v3h-3z"/><path fill="#97266D" d="M11 50.989h5v4.893h-5z"/><path fill="#F687B3" d="M51 35h3v3h-3zM11 59.144h5v4.893h-5z"/><path fill="#97266D" d="M11 67.299h5v4.893h-5z"/><path fill="#F687B3" d="M39 95h4v4.091h-4zm59-65h55v3H98zM78 56h54v3H78z"/><path fill="#97266D" d="M86 35h49v3H86zM69 61h45v3H69z"/><path fill="#F687B3" d="M67 81h49v3H67zm31-41h21v3H98zM78 66h20v3H78z"/><path fill="#97266D" d="M98 87h21v3H98zm23-47h28v3h-28z"/><path fill="#F687B3" d="M102 66h27v3h-27zm19 21h28v3h-28z"/><path fill="#FFF" d="M61.282 83.419l19.8 19.799-6.364 6.363-19.8-19.799z"/><circle stroke="#FFF" stroke-width="9" cx="35" cy="64" r="35"/></g></g></svg>