<svg viewBox="0 0 280 175" xmlns="http://www.w3.org/2000/svg"><g fill="none" fill-rule="evenodd"><path d="M0 0h280v175H0z"/><g transform="translate(59 29)"><path fill="#295E61" d="M0 0h163v117H0z"/><path fill="#319795" d="M71 36h21v21H71zM43 78h21v21H43zm60 0h21v21h-21z"/><circle fill="#657EEA" cx="27" cy="10" r="4"/><path fill="#1A202C" d="M0 0h163v21H0z"/><circle fill="#4FD1C5" cx="27" cy="10" r="4"/><circle fill="#B2F5EA" cx="40" cy="10" r="4"/><g transform="translate(52 45)"><circle fill="#FFF" cx="14" cy="2" r="2"/><circle fill="#FFF" cx="2" cy="27" r="2"/><path stroke="#FFF" d="M14 2L2 27"/></g><g transform="matrix(-1 0 0 1 111 45)"><circle fill="#FFF" cx="14" cy="2" r="2"/><circle fill="#FFF" cx="2" cy="27" r="2"/><path stroke="#FFF" d="M14 2L2 27"/></g><g transform="translate(69 86)"><circle fill="#FFF" cx="27" cy="2" r="2"/><circle fill="#FFF" cx="2" cy="2" r="2"/><path stroke="#FFF" d="M27 2H2"/></g><circle fill="#319795" cx="15" cy="10" r="4"/></g></g></svg>