<svg viewBox="0 0 280 175" xmlns="http://www.w3.org/2000/svg"><g fill="none" fill-rule="evenodd"><path d="M0 0h280v175H0z"/><g transform="translate(45 47)"><path fill="#5967D8" d="M0 0h47v13.125H0z"/><path fill="#4C50BF" d="M2.541 13.125H44.46V15H2.541z"/><ellipse fill="#657EEA" cx="5.399" cy="6.563" rx="1.588" ry="1.563"/><ellipse fill="#657EEA" cx="9.845" cy="6.563" rx="1.588" ry="1.563"/><ellipse fill="#657EEA" cx="14.291" cy="6.563" rx="1.588" ry="1.563"/></g><g transform="translate(45 62)"><path fill="#5967D8" d="M0 0h47v13.125H0z"/><path fill="#4C50BF" d="M2.541 13.125H44.46V15H2.541z"/><ellipse fill="#657EEA" cx="5.399" cy="6.563" rx="1.588" ry="1.563"/><ellipse fill="#657EEA" cx="9.845" cy="6.563" rx="1.588" ry="1.563"/><ellipse fill="#657EEA" cx="14.291" cy="6.563" rx="1.588" ry="1.563"/></g><g transform="translate(45 78)"><path fill="#5967D8" d="M0 0h47v13.125H0z"/><path fill="#4C50BF" d="M2.541 13.125H44.46V15H2.541z"/><ellipse fill="#657EEA" cx="5.399" cy="6.563" rx="1.588" ry="1.563"/><ellipse fill="#657EEA" cx="9.845" cy="6.563" rx="1.588" ry="1.563"/><ellipse fill="#657EEA" cx="14.291" cy="6.563" rx="1.588" ry="1.563"/></g><g transform="translate(45 93)"><path fill="#5967D8" d="M0 0h47v13.125H0z"/><path fill="#4C50BF" d="M2.541 13.125H44.46V15H2.541z"/><ellipse fill="#657EEA" cx="5.399" cy="6.563" rx="1.588" ry="1.563"/><ellipse fill="#657EEA" cx="9.845" cy="6.563" rx="1.588" ry="1.563"/><ellipse fill="#657EEA" cx="14.291" cy="6.563" rx="1.588" ry="1.563"/></g><g><g transform="translate(188 47)"><path fill="#5967D8" d="M0 0h47v13.125H0z"/><path fill="#4C50BF" d="M2.541 13.125H44.46V15H2.541z"/><ellipse fill="#657EEA" cx="5.399" cy="6.563" rx="1.588" ry="1.563"/><ellipse fill="#657EEA" cx="9.845" cy="6.563" rx="1.588" ry="1.563"/><ellipse fill="#657EEA" cx="14.291" cy="6.563" rx="1.588" ry="1.563"/></g><g transform="translate(188 62)"><path fill="#5967D8" d="M0 0h47v13.125H0z"/><path fill="#4C50BF" d="M2.541 13.125H44.46V15H2.541z"/><ellipse fill="#657EEA" cx="5.399" cy="6.563" rx="1.588" ry="1.563"/><ellipse fill="#657EEA" cx="9.845" cy="6.563" rx="1.588" ry="1.563"/><ellipse fill="#657EEA" cx="14.291" cy="6.563" rx="1.588" ry="1.563"/></g><g transform="translate(188 78)"><path fill="#5967D8" d="M0 0h47v13.125H0z"/><path fill="#4C50BF" d="M2.541 13.125H44.46V15H2.541z"/><ellipse fill="#657EEA" cx="5.399" cy="6.563" rx="1.588" ry="1.563"/><ellipse fill="#657EEA" cx="9.845" cy="6.563" rx="1.588" ry="1.563"/><ellipse fill="#657EEA" cx="14.291" cy="6.563" rx="1.588" ry="1.563"/></g><g transform="translate(188 93)"><path fill="#5967D8" d="M0 0h47v13.125H0z"/><path fill="#4C50BF" d="M2.541 13.125H44.46V15H2.541z"/><ellipse fill="#657EEA" cx="5.399" cy="6.563" rx="1.588" ry="1.563"/><ellipse fill="#657EEA" cx="9.845" cy="6.563" rx="1.588" ry="1.563"/><ellipse fill="#657EEA" cx="14.291" cy="6.563" rx="1.588" ry="1.563"/></g></g><g><g transform="translate(103 40)"><path fill="#4C50BF" d="M0 0h74v21H0z"/><path fill="#1A202C" d="M4 21h66v3H4z"/><circle fill="#657EEA" cx="8.5" cy="10.5" r="2.5"/><circle fill="#657EEA" cx="15.5" cy="10.5" r="2.5"/><circle fill="#657EEA" cx="22.5" cy="10.5" r="2.5"/></g><g transform="translate(103 64)"><path fill="#4C50BF" d="M0 0h74v21H0z"/><path fill="#1A202C" d="M4 21h66v3H4z"/><circle fill="#657EEA" cx="8.5" cy="10.5" r="2.5"/><circle fill="#657EEA" cx="15.5" cy="10.5" r="2.5"/><circle fill="#657EEA" cx="22.5" cy="10.5" r="2.5"/></g><g transform="translate(103 88)"><path fill="#4C50BF" d="M0 0h74v21H0z"/><path fill="#1A202C" d="M4 21h66v3H4z"/><circle fill="#657EEA" cx="8.5" cy="10.5" r="2.5"/><circle fill="#657EEA" cx="15.5" cy="10.5" r="2.5"/><circle fill="#657EEA" cx="22.5" cy="10.5" r="2.5"/></g><g transform="translate(103 112)"><path fill="#4C50BF" d="M0 0h74v21H0z"/><path fill="#1A202C" d="M4 21h66v3H4z"/><circle fill="#657EEA" cx="8.5" cy="10.5" r="2.5"/><circle fill="#657EEA" cx="15.5" cy="10.5" r="2.5"/><circle fill="#657EEA" cx="22.5" cy="10.5" r="2.5"/></g></g></g></svg>