<svg xmlns="http://www.w3.org/2000/svg" xmlns:xlink="http://www.w3.org/1999/xlink" viewBox="0 0 123 118">
    <defs>
        <path id="a" d="M0 0h45v47H0z"/>
    </defs>
    <g fill="none" fill-rule="evenodd">
        <path fill="#5967D8" d="M0 0h47v47H0z"/>
        <path fill="#4C50BF" d="M16 93h23v23H16z"/>
        <path fill="#A3BFFA" d="M29 23h83v81H29z"/>
        <path fill="#4C50BF" d="M106 16h12v12h-12z"/>
        <g transform="translate(47 39)">
        <mask id="b" fill="#fff">
            <use xlink:href="#a"/>
        </mask>
        <path fill="#FFF" d="M43.549 20.487l-7.258 4.24v-8.39l4.21-2.459 3.048-1.78v8.39zm-8.71 15.176L18.87 44.99v-8.474l11.826-6.848 4.141-2.4v8.395zM1.45 7.098l3.05 1.78 4.21 2.46v19.749l.001.003H8.71c.001.029.008.056.012.084.004.036.005.071.014.107v.002c.008.028.024.054.034.082.013.031.023.063.038.091l.002.003c.014.026.037.048.054.072.02.026.036.054.06.078l.001.002c.021.02.046.034.07.053.025.02.049.044.077.061l.004.002s.002 0 .003.002l8.341 4.788v8.473L1.451 35.663V7.098zm7.984-5.512l7.255 4.238-7.255 4.238L2.18 5.824l7.254-4.238zm3.774 26.448l-3.047 1.78V11.337l4.21-2.459 3.047-1.78v18.476l-4.21 2.46zM35.565 6.588l7.254 4.237-7.254 4.237-7.256-4.237 7.256-4.237zm-.727 9.75v8.388l-3.047-1.78-4.21-2.459v-8.389l3.047 1.78 4.21 2.46zM18.143 35.24L10.9 31.08l7.607-4.442h.001l8.346-4.877 7.251 4.236-5.32 3.08-10.642 6.163zm26.832-24.609c-.005-.021-.018-.04-.025-.061-.014-.039-.028-.079-.047-.115-.013-.024-.034-.044-.05-.065-.021-.03-.04-.06-.064-.087-.022-.02-.048-.036-.071-.054-.027-.022-.05-.046-.08-.063h-.002L35.927 5.1a.72.72 0 00-.725 0l-8.709 5.088h-.001c-.03.017-.054.041-.08.063-.024.018-.05.034-.071.054-.026.027-.043.058-.065.087-.017.021-.036.041-.05.065-.02.036-.032.076-.047.115-.008.021-.02.04-.025.061a.728.728 0 00-.025.193v9.662l-7.258 4.24V5.823a.719.719 0 00-.025-.192c-.007-.023-.017-.041-.025-.063-.015-.038-.028-.077-.048-.113-.014-.024-.032-.044-.05-.066-.02-.03-.039-.06-.064-.086-.02-.021-.047-.036-.07-.056-.027-.02-.052-.044-.08-.061l-.002-.001L9.797.099a.714.714 0 00-.724 0L.363 5.186v.001c-.03.017-.054.041-.08.061-.024.02-.052.035-.072.056-.024.026-.043.056-.065.086-.016.022-.036.042-.049.066-.02.036-.033.075-.047.113-.008.022-.02.04-.025.063A.719.719 0 000 5.824v30.264a.74.74 0 00.364.64l17.419 10.173a.58.58 0 00.12.05c.02.006.036.018.056.024a.677.677 0 00.372 0c.017-.004.033-.015.048-.022a.558.558 0 00.128-.052l17.42-10.173a.742.742 0 00.364-.64v-9.663l8.345-4.874a.735.735 0 00.364-.639V10.825a.728.728 0 00-.025-.193z" mask="url(#b)"/>
        </g>
        <path fill="#5967D8" d="M94 88h29v30H94z"/>
    </g>
</svg>
