<svg xmlns="http://www.w3.org/2000/svg" viewBox="0 0 149 119">
    <g fill="none" fill-rule="evenodd">
        <path fill="#D53F8C" d="M10 11h122v108H10z"/>
        <path fill="#B83280" d="M0 0h122v119H0z"/>
        <path fill="#F687B3" d="M19 21h50v2H19zM19 25h10.511v2.316H19zm14.599 0h23.942v2.316H33.599zm26.861 0h23.942v2.316H60.46zm-26.861 4.632H44.11v2.316H33.599zm14.598 0h23.942v2.316H48.197zm26.861 0H99v2.316H75.058zm-41.459 4.052H44.11V36H33.599zm14.598 0h23.942V36H48.197zm26.861 0H99V36H75.058zM19 46h10.511v2.316H19zm14.599 0h23.942v2.316H33.599zm26.861 0h23.942v2.316H60.46zm-26.861 4.632H44.11v2.316H33.599zm14.598 0h23.942v2.316H48.197zm26.861 0H99v2.316H75.058zm-41.459 4.052H44.11V57H33.599zm14.598 0h23.942V57H48.197zm26.861 0H99V57H75.058zM19 77h10.511v2.316H19zm14.599 0h23.942v2.316H33.599zm26.861 0h23.942v2.316H60.46zm-26.861 4.632H44.11v2.316H33.599zm14.598 0h23.942v2.316H48.197zm26.861 0H99v2.316H75.058zm-41.459 4.052H44.11V88H33.599zm14.598 0h23.942V88H48.197zm26.861 0H99V88H75.058zM19 90h10.511v2.316H19zm14.599 0h23.942v2.316H33.599zm26.861 0h23.942v2.316H60.46zm-26.861 4.632H44.11v2.316H33.599zm14.598 0h23.942v2.316H48.197zm26.861 0H99v2.316H75.058zm-41.459 4.052H44.11V101H33.599zm14.598 0h23.942V101H48.197zm26.861 0H99V101H75.058z"/>
        <circle cx="121.5" cy="49.5" r="27.5" fill="#702459"/>
        <path stroke="#FFF" stroke-width="7" d="M113 49l7.135 7L135 42"/>
    </g>
</svg>
